<svg id="Слой_1" data-name="Слой 1" xmlns="http://www.w3.org/2000/svg" viewBox="0 0 27.7 31.64"><path d="M12.27,1.68H24.45l.05.08,1.68,1.93c.57.65,1.14,1.29,1.7,1.94S29,6.92,29.58,7.57s1.13,1.28,1.69,1.93a.38.38,0,0,1,.07.21c0,.37,0,.75,0,1.12v7.26c0,2.44,0,4.87,0,7.31a3.55,3.55,0,0,1-.1.86,4.1,4.1,0,0,1-1.77,2.46,3.56,3.56,0,0,1-2,.64H26.42a4.17,4.17,0,0,1-.07.54,4.06,4.06,0,0,1-2.76,3.22,6.17,6.17,0,0,1-.85.2H7.33l-.23,0a4.08,4.08,0,0,1-2.59-1.57,4,4,0,0,1-.86-2.58q0-3.18,0-6.36c0-2.1,0-4.21,0-6.31,0-2.26,0-4.53,0-6.79a4.43,4.43,0,0,1,0-.63A4.09,4.09,0,0,1,4.75,6.84a3.59,3.59,0,0,1,2.76-1.2c.36,0,.72,0,1.08,0,0-.2,0-.38.07-.56a4.13,4.13,0,0,1,3.1-3.3ZM24.41,29.37H12.73a4.8,4.8,0,0,1-.85-.08,4.14,4.14,0,0,1-3.29-4c0-.73,0-1.46,0-2.2V7.58c-.45,0-.87.08-1.28.15a2.23,2.23,0,0,0-1.13.5,1.73,1.73,0,0,0-.56,1.4V29.2c0,.11,0,.23,0,.34a2.13,2.13,0,0,0,2,1.81H20.59c.73,0,1.46,0,2.18,0A1.79,1.79,0,0,0,24.41,29.37ZM20,22.44h4.45a1,1,0,1,0,0-2h-9.1a1,1,0,0,0-.8,1.07.93.93,0,0,0,1,.89Zm0-6.91h-4.5a.88.88,0,0,0-.72.34A1,1,0,0,0,14.64,17a.92.92,0,0,0,.9.51h8.91a1,1,0,0,0,1-1,.93.93,0,0,0-1-1ZM24.45,3.69h0V7.51a2.42,2.42,0,0,0,.06.54,2.07,2.07,0,0,0,1.95,1.54h2.94Z" transform="translate(-3.65 -1.68)"/></svg>